<mxfile host="app.diagrams.net" modified="2024-02-04T15:43:53.862Z" agent="Mozilla/5.0 (Windows NT 10.0; Win64; x64) AppleWebKit/537.36 (KHTML, like Gecko) Chrome/121.0.0.0 Safari/537.36 Edg/121.0.0.0" version="23.1.1" etag="MuO0_SuzA2A1U7jLosyY" type="github">
  <diagram name="Page-1" id="LDumXNflHx7nx2bK48L2">
    <mxGraphModel>
      <root>
        <mxCell id="0" />
        <mxCell id="1" parent="0" />
      </root>
    </mxGraphModel>
  </diagram>
</mxfile>
